<svg width="17" height="16" viewBox="0 0 17 16" fill="none" xmlns="http://www.w3.org/2000/svg">
<g clip-path="url(#clip0_362_44103)">
<path d="M16.3049 8.70625C16.6955 8.31563 16.6955 7.68125 16.3049 7.29063L12.3049 3.29063C11.9143 2.9 11.2799 2.9 10.8893 3.29063C10.4986 3.68125 10.4986 4.31563 10.8893 4.70625L13.183 7H6.59863C6.04551 7 5.59863 7.44687 5.59863 8C5.59863 8.55313 6.04551 9 6.59863 9H13.183L10.8893 11.2937C10.4986 11.6844 10.4986 12.3188 10.8893 12.7094C11.2799 13.1 11.9143 13.1 12.3049 12.7094L16.3049 8.70938V8.70625ZM5.59863 3C6.15176 3 6.59863 2.55313 6.59863 2C6.59863 1.44687 6.15176 1 5.59863 1H3.59863C1.94238 1 0.598633 2.34375 0.598633 4V12C0.598633 13.6562 1.94238 15 3.59863 15H5.59863C6.15176 15 6.59863 14.5531 6.59863 14C6.59863 13.4469 6.15176 13 5.59863 13H3.59863C3.04551 13 2.59863 12.5531 2.59863 12V4C2.59863 3.44687 3.04551 3 3.59863 3H5.59863Z" fill="white"/>
</g>
<defs>
<clipPath id="clip0_362_44103">
<rect width="16" height="16" fill="white" transform="translate(0.598633)"/>
</clipPath>
</defs>
</svg>
