<svg width="33" height="32" viewBox="0 0 33 32" fill="none" xmlns="http://www.w3.org/2000/svg">
<path d="M27.1673 28C27.1673 26.1392 27.1673 25.2089 26.9377 24.4518C26.4206 22.7473 25.0867 21.4134 23.3822 20.8963C22.6251 20.6667 21.6947 20.6667 19.834 20.6667H13.1673C11.3066 20.6667 10.3762 20.6667 9.61913 20.8963C7.91459 21.4134 6.5807 22.7473 6.06364 24.4518C5.83398 25.2089 5.83398 26.1392 5.83398 28M22.5007 10C22.5007 13.3137 19.8144 16 16.5007 16C13.1869 16 10.5007 13.3137 10.5007 10C10.5007 6.68629 13.1869 4 16.5007 4C19.8144 4 22.5007 6.68629 22.5007 10Z" stroke="#6B6E76" stroke-width="2.66667" stroke-linecap="round" stroke-linejoin="round"/>
</svg>
